<svg xmlns="http://www.w3.org/2000/svg" xmlns:xlink="http://www.w3.org/1999/xlink" width="725.384" height="156.505" viewBox="0 0 725.384 156.505"><defs><style>.a{fill:#929497;font-size:61px;font-family:Montserrat-Bold, Montserrat;letter-spacing:0.13em;font-weight:700;}.b{font-family:Montserrat-Regular, Montserrat;font-weight:400;}.c{fill:url(#a);}.d{opacity:0.65;fill:url(#b);}</style><radialGradient id="a" cx="0.105" cy="0.069" r="1.044" gradientUnits="objectBoundingBox"><stop offset="0" stop-color="#1dddbd"/><stop offset="0.413" stop-color="#1ed9c0"/><stop offset="1" stop-color="#2978ff"/></radialGradient><radialGradient id="b" cx="0.397" cy="1.093" r="0.678" gradientUnits="objectBoundingBox"><stop offset="0" stop-color="#fff"/><stop offset="1" stop-color="#fff" stop-opacity="0"/></radialGradient></defs><g transform="translate(-1071.242 -176)"><text class="a" transform="translate(1252.626 275.479)"><tspan x="0" y="0">C3C</tspan><tspan y="0"> </tspan><tspan class="b" y="0">SOFTWARE</tspan></text><g transform="translate(1071.242 176)"><path class="c" d="M32.941,109.34h0l0-.019c-8.425,5.965-17.748,4.561-23.807-.586C-1.747,99.5-5.157,76.762,11.606,63.124l28.8,12.851h0L11.6,63.115c.264-.21.616-.488.921-.717q-.479.358-.922.714A19.084,19.084,0,0,1,.4,41.963c2.563-14.04,20.49-28.239,40.683-20.539L44.355,52.8h.006L41.091,21.41c.386.154.939.377,1.322.55a49.945,49.945,0,0,1,6,3.179A42.246,42.246,0,0,0,41.075,21.4,18.789,18.789,0,0,1,53.789,1.361C67.23-3.439,88.572,4.406,92,25.742l-.177.131.172-.12v0c8.429-5.978,17.673-3.892,23.736,1.258,10.877,9.239,14.237,31.975-2.527,45.612l-.024-.011-.017.013c9.378,4.313,12.672,13.119,11.244,20.94-2.563,14.04-20.542,28.252-40.735,20.553l-3.1-31.306a48.233,48.233,0,0,0,6.34-.1,50.3,50.3,0,0,1-6.361.1l3.11,31.318.006,0a19.1,19.1,0,0,1-12.62,20.341,23.387,23.387,0,0,1-7.856,1.292A30.958,30.958,0,0,1,32.941,109.34Zm49.692,4.376-.125-.054q-2.114-.942-4.1-2.055A40.454,40.454,0,0,0,82.634,113.716Zm-49.943-6.541q-.2-2.363-.184-4.694A43.29,43.29,0,0,0,32.691,107.174ZM63.5,98.77a50.963,50.963,0,0,1-4.985-7.784l0,0A45.2,45.2,0,0,0,63.5,98.77ZM37.508,81.164A51.114,51.114,0,0,1,40,76.618,47.535,47.535,0,0,0,37.508,81.164Zm64.934-2.26a45.2,45.2,0,0,0,9.6-5.419A49.878,49.878,0,0,1,102.442,78.9ZM12.667,62.293l.062-.045q.88-.639,1.778-1.233Q13.534,61.651,12.667,62.293Zm20.919-8.836a50.092,50.092,0,0,1,9.54-.7q-.82-.034-1.637-.033A44.442,44.442,0,0,0,33.586,53.457ZM66.4,44.628,83.382,32.1,66.4,44.622Zm-.525-.983a47,47,0,0,0-5.2-7.73A50.825,50.825,0,0,1,65.88,43.645Zm25.98-3.468c.013-.082.026-.163.038-.244a43.6,43.6,0,0,0,.458-4.671A49.388,49.388,0,0,1,91.861,40.177Zm.286-12.657q.043.413.08.825-.069-.918-.155-1.788C92.1,26.92,92.122,27.3,92.146,27.52Z" transform="translate(10.787 10.504)"/><g transform="translate(0 0)"><path class="d" d="M44.285,33.577,41.005,2.169c-20.192-7.7-38.12,6.5-40.683,20.54a19.085,19.085,0,0,0,11.208,21.15C18.228,38.482,31.171,32.62,44.285,33.577Z" transform="translate(10.859 29.701)"/><path class="d" d="M44.322,33.529,41.05,2.157C20.858-5.541,2.873,8.779.31,22.819-1.119,30.647,2.334,39.431,11.73,43.74A50.113,50.113,0,0,1,44.322,33.529Z" transform="translate(0 108.044) rotate(-60)"/><path class="d" d="M44.253,33.5,41.155,2.18C20.962-5.519,2.88,8.571.317,22.611a19.1,19.1,0,0,0,11.305,21.1C18.255,38.342,30.961,32.711,44.253,33.5Z" transform="translate(62.415 156.504) rotate(-120)"/><path class="d" d="M44.152,33.474l-3.1-31.306C20.862-5.531,2.882,8.681.319,22.721-1.11,30.549,2.191,39.363,11.587,43.673,18.08,38.341,30.2,32.78,44.152,33.474Z" transform="translate(135.515 126.74) rotate(180)"/><path class="d" d="M44.217,33.509l-3.1-31.348C20.922-5.537,2.913,8.74.35,22.78c-1.429,7.828,1.389,16.879,10.786,21.188a54.853,54.853,0,0,1,12.318-7.006A50.881,50.881,0,0,1,44.217,33.509Z" transform="translate(146.423 48.55) rotate(120)"/><path class="d" d="M44.109,33.756,40.557,2.134C20.365-5.565,2.9,9,.336,23.035a18.789,18.789,0,0,0,11,21.031A50.034,50.034,0,0,1,44.109,33.756Z" transform="translate(84.357 0) rotate(60)"/></g></g></g></svg>